<?xml version="1.0" encoding="UTF-8"?>
<!DOCTYPE svg PUBLIC "-//W3C//DTD SVG 1.1//EN" "http://www.w3.org/Graphics/SVG/1.1/DTD/svg11.dtd">
<!-- Creator: CorelDRAW X7 -->
<svg xmlns="http://www.w3.org/2000/svg" xml:space="preserve" width="122.236mm" height="37.3195mm" version="1.1" style="shape-rendering:geometricPrecision; text-rendering:geometricPrecision; image-rendering:optimizeQuality; fill-rule:evenodd; clip-rule:evenodd"
viewBox="0 0 8033 2453"
 xmlns:xlink="http://www.w3.org/1999/xlink">
 <defs>
  <style type="text/css">
   <![CDATA[
    .fil1 {fill:#FDC600}
    .fil0 {fill:#0F6DB4}
   ]]>
  </style>
 </defs>
 <g id="Layer_x0020_1">
  <metadata id="CorelCorpID_0Corel-Layer"/>
  <g id="_897483322416">
   <path class="fil0" d="M0 836c338,0 675,0 1013,0 157,1 241,67 264,165l0 333c-9,71 -50,123 -132,153 65,0 114,27 139,97l0 307 -340 0 0 -155c-4,-43 -22,-77 -58,-100l-574 0 0 255 -312 0 0 -1055zm332 295l0 219 562 0c29,0 50,-15 56,-41 0,-42 0,-83 0,-125 -2,-24 -34,-51 -55,-53l-563 0z"/>
   <path class="fil0" d="M1910 836l469 0 555 1055 -378 0 -91 -153 -662 0 -98 153 -374 0 579 -1055zm28 635l389 0 -163 -354 -39 0 -187 354z"/>
   <path class="fil0" d="M2995 836c357,0 713,0 1069,0 160,11 256,87 277,236l0 555c-5,125 -70,216 -218,264l-1135 0 7 -1055zm309 309c213,0 426,0 638,0 46,4 74,37 87,90l0 309c-15,55 -53,73 -100,73l-625 0 0 -472z"/>
   <path class="fil0" d="M5306 836l330 0c0,218 0,447 0,664 19,66 54,104 105,111 154,0 309,0 464,0 51,2 101,-32 111,-79l0 -696 344 0c0,266 0,618 0,884 -10,120 -78,176 -208,171 -296,0 -592,0 -888,0 -116,2 -266,-56 -265,-169l7 -886z"/>
   <path class="fil0" d="M8004 1203l3 -203c-30,-83 -82,-140 -163,-163 -286,0 -573,0 -860,0 -93,1 -179,72 -191,175 0,104 -4,195 -4,299 -7,88 46,176 129,178 264,0 527,0 791,0 35,58 35,114 0,167 -190,0 -379,0 -569,0 -48,-3 -65,-45 -62,-115l-316 0c0,66 0,107 0,173 16,111 83,172 208,177 284,0 569,0 853,0 79,4 202,-56 210,-174 0,-115 0,-206 0,-321 -18,-98 -97,-147 -197,-160l-687 0c-54,-24 -46,-117 -9,-146 154,0 308,0 461,0 46,18 78,58 73,113l330 0z"/>
   <path class="fil1" d="M4458 978c194,-255 617,-377 936,-340 201,136 -948,826 -773,1815 -237,-178 -312,-845 -163,-1475z"/>
   <ellipse class="fil0" cx="4898" cy="318" rx="337" ry="318"/>
  </g>
 </g>
</svg>
